<svg id="wave" style="transform:rotate(0deg); transition: 0.3s" viewBox="0 0 1440 120" version="1.1" xmlns="http://www.w3.org/2000/svg"><defs><linearGradient id="sw-gradient-0" x1="0" x2="0" y1="1" y2="0"><stop stop-color="rgba(15, 23, 42, 1)" offset="0%"></stop><stop stop-color="rgba(15, 23, 42, 1)" offset="100%"></stop></linearGradient></defs><path style="transform:translate(0, 0px); opacity:1" fill="url(#sw-gradient-0)" d="M0,12L48,12C96,12,192,12,288,28C384,44,480,76,576,78C672,80,768,52,864,52C960,52,1056,80,1152,80C1248,80,1344,52,1440,46C1536,40,1632,56,1728,68C1824,80,1920,88,2016,84C2112,80,2208,64,2304,66C2400,68,2496,88,2592,96C2688,104,2784,100,2880,100C2976,100,3072,104,3168,98C3264,92,3360,76,3456,72C3552,68,3648,76,3744,68C3840,60,3936,36,4032,32C4128,28,4224,44,4320,50C4416,56,4512,52,4608,44C4704,36,4800,24,4896,30C4992,36,5088,60,5184,58C5280,56,5376,28,5472,26C5568,24,5664,48,5760,50C5856,52,5952,32,6048,24C6144,16,6240,20,6336,24C6432,28,6528,32,6624,42C6720,52,6816,68,6864,76L6912,84L6912,120L6864,120C6816,120,6720,120,6624,120C6528,120,6432,120,6336,120C6240,120,6144,120,6048,120C5952,120,5856,120,5760,120C5664,120,5568,120,5472,120C5376,120,5280,120,5184,120C5088,120,4992,120,4896,120C4800,120,4704,120,4608,120C4512,120,4416,120,4320,120C4224,120,4128,120,4032,120C3936,120,3840,120,3744,120C3648,120,3552,120,3456,120C3360,120,3264,120,3168,120C3072,120,2976,120,2880,120C2784,120,2688,120,2592,120C2496,120,2400,120,2304,120C2208,120,2112,120,2016,120C1920,120,1824,120,1728,120C1632,120,1536,120,1440,120C1344,120,1248,120,1152,120C1056,120,960,120,864,120C768,120,672,120,576,120C480,120,384,120,288,120C192,120,96,120,48,120L0,120Z"></path></svg>